<svg width="64" height="64" viewBox="0 0 64 64" fill="none" xmlns="http://www.w3.org/2000/svg">
<path d="M32 0C14.3232 0 0 14.3232 0 32C0 49.6768 14.3232 64 32 64C49.6768 64 64 49.6768 64 32C64 14.3232 49.6768 0 32 0ZM27.8656 3.648C24.7552 7.5136 22.336 11.8272 20.672 16.4096C17.344 15.5136 14.0928 14.208 11.008 12.4928C15.36 7.8208 21.248 4.5952 27.8656 3.648ZM9.5744 14.1696C12.8896 16.0512 16.384 17.4848 19.9808 18.4576C18.7392 22.4512 18.048 26.6368 17.9456 30.912H3.3664C3.5968 24.6016 5.888 18.8032 9.5744 14.1696ZM3.3664 33.0752H17.9456C18.048 37.3632 18.7392 41.536 19.9808 45.5296C16.384 46.5152 12.8896 47.936 9.5744 49.8176C5.888 45.1968 3.5968 39.3984 3.3664 33.0752ZM11.008 51.4944C14.0928 49.792 17.3312 48.4864 20.672 47.5776C22.3488 52.1728 24.768 56.4736 27.8656 60.3392C21.248 59.392 15.36 56.1792 11.008 51.4944ZM30.9248 60.6208C27.3664 56.5888 24.6272 52.0064 22.784 47.0656C25.4592 46.4896 28.1856 46.1568 30.9248 46.0928V60.6208ZM30.9248 43.9424C27.9552 44.0064 24.9984 44.3776 22.08 45.0176C20.8768 41.1904 20.2112 37.184 20.1088 33.0752H30.9248V43.9424ZM30.9248 30.9248H20.1088C20.2112 26.816 20.8768 22.8096 22.08 18.9824C24.9856 19.6352 27.9552 19.9936 30.9248 20.0576V30.9248ZM30.9248 17.8944C28.1984 17.8304 25.472 17.4976 22.784 16.9216C24.6144 11.9808 27.3536 7.3984 30.9248 3.3664V17.8944ZM60.6336 30.9248H46.0416C45.9392 26.7136 45.2608 22.528 44.0064 18.4704C47.616 17.4848 51.1232 16.0512 54.4384 14.1696C58.112 18.8032 60.4032 24.6016 60.6336 30.9248ZM52.992 12.5056C49.9072 14.2208 46.6432 15.5264 43.3024 16.4224C41.6512 11.8912 39.2576 7.5648 36.1216 3.648C42.752 4.5952 48.64 7.8208 52.992 12.5056ZM33.088 3.3792C36.6976 7.4624 39.3984 12.0704 41.2032 16.9344C38.528 17.5104 35.8144 17.8304 33.088 17.9072V3.3792ZM33.088 20.0576C36.0448 19.9936 39.0016 19.6352 41.9072 18.9824C43.1232 22.8608 43.7888 26.88 43.8784 30.912H33.088V20.0576V20.0576ZM33.088 33.0752H43.8784C43.776 37.1072 43.1232 41.1264 41.9072 45.0048C39.0016 44.3648 36.0576 44.0064 33.088 43.9296V33.0752ZM33.088 46.1056C35.8144 46.1696 38.528 46.4896 41.2032 47.0784C39.3984 51.9424 36.6976 56.5504 33.088 60.6336V46.1056ZM36.1344 60.352C39.2704 56.4352 41.664 52.1088 43.3152 47.5776C46.656 48.4736 49.9072 49.7792 53.0048 51.4944C48.64 56.1792 42.752 59.4048 36.1344 60.352ZM54.4256 49.8304C51.1104 47.9488 47.6032 46.5152 43.9936 45.5296C45.248 41.4848 45.9264 37.2864 46.0288 33.0752H60.6208C60.4032 39.3984 58.112 45.1968 54.4256 49.8304Z" fill="#3E474D"/>
</svg>
