<svg width="52" height="52" viewBox="0 0 52 52" fill="none" xmlns="http://www.w3.org/2000/svg">
<path opacity="0.1" fill-rule="evenodd" clip-rule="evenodd" d="M0 26C0 11.6406 11.6406 0 26 0C40.3594 0 52 11.6406 52 26C52 40.3594 40.3594 52 26 52C11.6406 52 0 40.3594 0 26Z" fill="white"/>
<path fill-rule="evenodd" clip-rule="evenodd" d="M26.0018 12.1333C22.2358 12.1333 21.7631 12.1498 20.284 12.2171C18.8078 12.2847 17.8001 12.5184 16.9184 12.8613C16.0064 13.2155 15.2327 13.6893 14.462 14.4603C13.6906 15.2311 13.2168 16.0047 12.8615 16.9165C12.5177 17.7985 12.2837 18.8064 12.2173 20.2821C12.1511 21.7612 12.1338 22.2341 12.1338 26.0001C12.1338 29.7661 12.1505 30.2373 12.2176 31.7164C12.2855 33.1927 12.5192 34.2003 12.8618 35.082C13.2163 35.994 13.69 36.7677 14.4611 37.5385C15.2316 38.3098 16.0052 38.7847 16.9167 39.1389C17.799 39.4818 18.8069 39.7155 20.2829 39.7831C21.762 39.8505 22.2343 39.8669 26 39.8669C29.7663 39.8669 30.2375 39.8505 31.7166 39.7831C33.1929 39.7155 34.2017 39.4818 35.0839 39.1389C35.9957 38.7847 36.7682 38.3098 37.5387 37.5385C38.31 36.7677 38.7838 35.994 39.1391 35.0823C39.48 34.2003 39.714 33.1924 39.7833 31.7167C39.8498 30.2376 39.8671 29.7661 39.8671 26.0001C39.8671 22.2341 39.8498 21.7615 39.7833 20.2824C39.714 18.8061 39.48 17.7985 39.1391 16.9168C38.7838 16.0047 38.31 15.2311 37.5387 14.4603C36.7673 13.689 35.996 13.2152 35.0831 12.8613C34.1991 12.5184 33.1908 12.2847 31.7146 12.2171C30.2355 12.1498 29.7646 12.1333 25.9974 12.1333H26.0018ZM24.7577 14.6322C25.1269 14.6316 25.5389 14.6322 26.0017 14.6322C29.7041 14.6322 30.143 14.6455 31.605 14.7119C32.9571 14.7737 33.6908 14.9996 34.1796 15.1894C34.8268 15.4408 35.2881 15.7412 35.7732 16.2266C36.2585 16.7119 36.559 17.1741 36.8109 17.8213C37.0007 18.3095 37.2269 19.0433 37.2884 20.3953C37.3549 21.8571 37.3693 22.2962 37.3693 25.9969C37.3693 29.6976 37.3549 30.1367 37.2884 31.5985C37.2266 32.9505 37.0007 33.6843 36.8109 34.1725C36.5595 34.8197 36.2585 35.2804 35.7732 35.7655C35.2878 36.2508 34.8271 36.5513 34.1796 36.8026C33.6914 36.9933 32.9571 37.2186 31.605 37.2804C30.1432 37.3469 29.7041 37.3613 26.0017 37.3613C22.299 37.3613 21.8601 37.3469 20.3983 37.2804C19.0463 37.218 18.3125 36.9921 17.8235 36.8023C17.1763 36.551 16.7141 36.2505 16.2288 35.7652C15.7434 35.2799 15.443 34.8188 15.1911 34.1714C15.0013 33.6832 14.7751 32.9494 14.7135 31.5974C14.6471 30.1356 14.6338 29.6964 14.6338 25.9934C14.6338 22.2904 14.6471 21.8536 14.7135 20.3918C14.7754 19.0398 15.0013 18.306 15.1911 17.8172C15.4424 17.1701 15.7434 16.7079 16.2288 16.2225C16.7141 15.7372 17.1763 15.4367 17.8235 15.1848C18.3123 14.9942 19.0463 14.7688 20.3983 14.7067C21.6776 14.6489 22.1733 14.6316 24.7577 14.6287V14.6322ZM33.4037 16.9347C32.485 16.9347 31.7397 17.6791 31.7397 18.5981C31.7397 19.5168 32.485 20.2621 33.4037 20.2621C34.3224 20.2621 35.0677 19.5168 35.0677 18.5981C35.0677 17.6794 34.3224 16.9347 33.4037 16.9347ZM26.0018 18.8789C22.0691 18.8789 18.8806 22.0674 18.8806 26.0001C18.8806 29.9328 22.0691 33.1198 26.0018 33.1198C29.9345 33.1198 33.1218 29.9328 33.1218 26.0001C33.1218 22.0674 29.9345 18.8789 26.0018 18.8789ZM26.0017 21.3778C28.5544 21.3778 30.624 23.4471 30.624 26.0001C30.624 28.5527 28.5544 30.6223 26.0017 30.6223C23.4488 30.6223 21.3795 28.5527 21.3795 26.0001C21.3795 23.4471 23.4488 21.3778 26.0017 21.3778Z" fill="white"/>
</svg>
