<svg width="52" height="52" viewBox="0 0 52 52" fill="none" xmlns="http://www.w3.org/2000/svg">
<path opacity="0.1" fill-rule="evenodd" clip-rule="evenodd" d="M0 26C0 11.6406 11.6406 0 26 0C40.3594 0 52 11.6406 52 26C52 40.3594 40.3594 52 26 52C11.6406 52 0 40.3594 0 26Z" fill="white"/>
<path d="M35.5809 14H16.4191C15.7763 14.0015 15.1604 14.2658 14.7067 14.7347C14.2531 15.2035 13.9989 15.8387 14 16.5004V36.501C13.9995 36.8286 14.0616 37.1531 14.1829 37.456C14.3041 37.7589 14.4822 38.0342 14.7068 38.2663C14.9314 38.4983 15.1983 38.6826 15.4921 38.8085C15.7859 38.9343 16.1009 38.9994 16.4191 39H35.5809C35.8991 38.9994 36.2141 38.9343 36.5079 38.8085C36.8017 38.6826 37.0686 38.4983 37.2932 38.2663C37.5178 38.0342 37.6959 37.7589 37.8171 37.456C37.9384 37.1531 38.0005 36.8286 38 36.501V16.5004C38.0011 15.8387 37.7469 15.2035 37.2933 14.7347C36.8396 14.2658 36.2237 14.0015 35.5809 14ZM21.7013 33.7821H18.4725V23.0878H21.7013V33.7821ZM20.0653 21.7758C19.0462 21.7758 18.3902 21.0314 18.3902 20.1131C18.3902 19.1949 19.0672 18.4519 20.1071 18.4519C21.1471 18.4519 21.7822 19.1704 21.8074 20.1131C21.8325 21.0558 21.1485 21.7758 20.0653 21.7758ZM33.4898 33.7821H30.261V27.8544C30.261 26.4777 29.7934 25.5365 28.625 25.5365C27.733 25.5365 27.2026 26.1716 26.9695 26.7838C26.8863 27.052 26.8499 27.3332 26.862 27.6144V33.7821H23.6332V26.4993C23.6332 25.1657 23.5913 24.0563 23.5481 23.0878H26.3525L26.5018 24.5751H26.5646C26.9834 23.8753 28.0304 22.8507 29.7753 22.8507C31.8998 22.8507 33.4926 24.3164 33.4926 27.465L33.4898 33.7821Z" fill="white"/>
</svg>
