<svg width="28" height="20" viewBox="0 0 28 20" fill="none" xmlns="http://www.w3.org/2000/svg">
<path fill-rule="evenodd" clip-rule="evenodd" d="M0 1.30435C0 0.583976 0.600129 0 1.34043 0H26.6596C27.3999 0 28 0.583976 28 1.30435C28 2.02472 27.3999 2.6087 26.6596 2.6087H1.34043C0.600129 2.6087 0 2.02472 0 1.30435ZM6.4539 10C6.4539 9.27963 7.05403 8.69565 7.79433 8.69565H26.6596C27.3999 8.69565 28 9.27963 28 10C28 10.7204 27.3999 11.3043 26.6596 11.3043H7.79433C7.05403 11.3043 6.4539 10.7204 6.4539 10ZM0 18.6957C0 17.9753 0.600129 17.3913 1.34043 17.3913H26.6596C27.3999 17.3913 28 17.9753 28 18.6957C28 19.416 27.3999 20 26.6596 20H1.34043C0.600129 20 0 19.416 0 18.6957Z" fill="#8D885E"/>
</svg>
