<svg width="24" height="24" viewBox="0 0 24 24" fill="none" xmlns="http://www.w3.org/2000/svg">
<path fill-rule="evenodd" clip-rule="evenodd" d="M12.3401 2.15003C10.629 2.1482 8.94825 2.60135 7.47001 3.46304C5.99177 4.32473 4.76922 5.56396 3.92765 7.05375C3.08609 8.54354 2.65577 10.2303 2.68079 11.9412C2.70582 13.652 3.18529 15.3255 4.07008 16.79L2.33008 22L7.68008 20.3C8.97099 21.0007 10.4047 21.3977 11.8721 21.4609C13.3395 21.5242 14.802 21.252 16.1484 20.665C17.4948 20.078 18.6897 19.1918 19.642 18.0736C20.5944 16.9554 21.2793 15.6348 21.6445 14.2122C22.0098 12.7895 22.0459 11.3023 21.7499 9.86366C21.454 8.425 20.8339 7.07276 19.9368 5.90977C19.0397 4.74679 17.8892 3.80368 16.5728 3.15218C15.2565 2.50069 13.8088 2.15795 12.3401 2.15003ZM12.3401 19.84C10.7663 19.8424 9.22756 19.3759 7.92008 18.5L4.83008 19.5L5.83008 16.5C4.78247 15.0429 4.25522 13.2759 4.33309 11.4829C4.41095 9.69001 5.08941 7.97533 6.25939 6.61452C7.42938 5.25371 9.02294 4.32582 10.7839 3.97999C12.5449 3.63416 14.371 3.89048 15.9688 4.70775C17.5665 5.52502 18.843 6.85577 19.5932 8.48609C20.3433 10.1164 20.5235 11.9516 20.1047 13.6967C19.686 15.4418 18.6926 16.9954 17.2844 18.1078C15.8761 19.2202 14.1347 19.8268 12.3401 19.83V19.84ZM16.8601 14C16.6201 13.87 15.4301 13.23 15.2101 13.14C14.9901 13.05 14.8201 13.01 14.6401 13.24C14.4601 13.47 13.9801 14.01 13.8301 14.18C13.7575 14.2497 13.6607 14.2886 13.5601 14.2886C13.4594 14.2886 13.3627 14.2497 13.2901 14.18C12.5714 13.8653 11.9145 13.4251 11.3501 12.88C10.8358 12.375 10.4009 11.7951 10.0601 11.16C10.0336 11.1193 10.0159 11.0734 10.0082 11.0255C10.0004 10.9775 10.0027 10.9284 10.0149 10.8814C10.0271 10.8343 10.049 10.7904 10.0792 10.7523C10.1093 10.7142 10.1471 10.6827 10.1901 10.66L10.5801 10.24C10.6826 10.1213 10.7699 9.99031 10.8401 9.85003C10.8769 9.78434 10.8962 9.71032 10.8962 9.63503C10.8962 9.55974 10.8769 9.48572 10.8401 9.42003C10.7801 9.29003 10.3301 8.06003 10.1501 7.56003C9.97008 7.06003 9.75008 7.13003 9.60008 7.13003C9.45008 7.13003 9.30008 7.13003 9.13008 7.13003C9.00406 7.12694 8.87887 7.15128 8.76319 7.20135C8.6475 7.25142 8.54408 7.32604 8.46008 7.42003C8.17312 7.66986 7.94134 7.97672 7.77951 8.32106C7.61767 8.6654 7.52931 9.03967 7.52008 9.42003C7.56907 10.3512 7.88881 11.2479 8.44008 12C9.40556 13.6498 10.816 14.9945 12.5101 15.88C14.9801 16.96 14.9901 16.63 15.4401 16.61C15.7879 16.5544 16.1201 16.4258 16.4148 16.2328C16.7095 16.0398 16.96 15.7867 17.1501 15.49C17.3234 15.126 17.3893 14.7202 17.3401 14.32C17.2701 14.2 17.1001 14.12 16.8601 14Z" fill="white"/>
</svg>
